<svg
  class="svg"
  viewbox="0 0 25 25"
  style="
    shape-rendering: geometricPrecision;
    text-rendering: geometricPrecision;
    image-rendering: optimizeQuality;
    fill-rule: evenodd;
    clip-rule: evenodd;
  "
>
  <g>
    <path
      d="M 140.5,-0.5 C 153.167,-0.5 165.833,-0.5 178.5,-0.5C 190.563,1.3521 202.563,4.01877 214.5,7.5C 214.5,8.5 214.5,9.5 214.5,10.5C 215.791,10.7373 216.791,10.404 217.5,9.5C 245.815,20.605 269.315,38.2717 288,62.5C 304.08,85.0582 314.58,110.391 319.5,138.5C 319.5,152.5 319.5,166.5 319.5,180.5C 314.915,208.21 304.415,233.543 288,256.5C 281.379,265.124 273.879,272.79 265.5,279.5C 262.5,279.167 261.167,280.5 261.5,283.5C 255.167,289.432 247.501,294.598 238.5,299C 238.833,299.333 239.167,299.667 239.5,300C 228.775,304.944 217.775,309.444 206.5,313.5C 197.658,315.417 188.991,317.417 180.5,319.5C 168.833,319.5 157.167,319.5 145.5,319.5C 144.833,316.833 144.167,316.833 143.5,319.5C 141.833,319.5 140.167,319.5 138.5,319.5C 87.5291,310.156 48.5291,284.656 21.5,243C 21.8333,242.667 22.1667,242.333 22.5,242C 19.6454,238.819 17.1454,235.319 15,231.5C 11.58,223.651 8.41338,215.651 5.5,207.5C 3.49435,198.021 1.49435,188.688 -0.5,179.5C -0.5,166.167 -0.5,152.833 -0.5,139.5C 6.13177,95.8901 26.4651,60.2234 60.5,32.5C 84.3303,14.24 110.997,3.24004 140.5,-0.5 Z M 101.5,48.5 C 102.239,48.631 102.906,48.4643 103.5,48C 102.262,47.31 102.262,46.81 103.5,46.5C 128.02,35.5908 154.353,32.0908 182.5,36C 219.957,43.0867 249.123,64.2534 270,99.5C 279.627,118.51 284.461,138.676 284.5,160C 282.131,216.067 255.131,255.4 203.5,278C 156.248,292.276 113.914,284.443 76.5,254.5C 38.9164,219.332 26.4164,175.666 39,123.5C 49.9473,89.4576 70.7806,64.4576 101.5,48.5 Z M 156.5,94.5"
    />
  </g>
  <g>
    <path
      d="M 148.5,61.5 C 192.092,59.04 224.925,76.3734 247,113.5C 264.152,152.098 260.486,188.432 236,222.5C 203.321,256.709 164.487,265.876 119.5,250C 71.5496,224.575 53.383,185.075 65,131.5C 74.6276,103.207 92.7942,82.3734 119.5,69C 129.053,65.5302 138.719,63.0302 148.5,61.5 Z M 156.5,94.5 C 143.184,96.1072 130.851,100.607 119.5,108C 91.4476,134.265 86.9476,164.098 106,197.5C 128.217,224.597 155.717,231.763 188.5,219C 217.327,202.844 229.16,178.344 224,145.5C 214.059,111.94 191.559,94.94 156.5,94.5 Z"
    />
  </g>
</svg>